<?xml version="1.0" encoding="UTF-8" standalone="no"?>
<svg
   version="1.0"
   width="14838.128"
   height="4220.8735"
   viewBox="0 0 14838.129 4220.8735"
   preserveAspectRatio="xMidYMid"
   id="svg9"
   sodipodi:docname="dark-text.svg"
   inkscape:version="1.3 (0e150ed6c4, 2023-07-21)"
   xmlns:inkscape="http://www.inkscape.org/namespaces/inkscape"
   xmlns:sodipodi="http://sodipodi.sourceforge.net/DTD/sodipodi-0.dtd"
   xmlns="http://www.w3.org/2000/svg"
   xmlns:svg="http://www.w3.org/2000/svg">
  <defs
     id="defs9">
    <rect
       x="528.2121"
       y="2839.1401"
       width="4610.8516"
       height="676.77179"
       id="rect2" />
    <rect
       x="594.23865"
       y="2828.1357"
       width="3570.9341"
       height="594.23865"
       id="rect1" />
    <rect
       x="1426.1583"
       y="2892.6797"
       width="2143.5208"
       height="399.04922"
       id="rect9" />
  </defs>
  <sodipodi:namedview
     id="namedview9"
     pagecolor="#505050"
     bordercolor="#eeeeee"
     borderopacity="1"
     inkscape:showpageshadow="0"
     inkscape:pageopacity="0"
     inkscape:pagecheckerboard="0"
     inkscape:deskcolor="#d1d1d1"
     inkscape:zoom="0.064256621"
     inkscape:cx="6948.7003"
     inkscape:cy="692.53564"
     inkscape:window-width="1920"
     inkscape:window-height="1017"
     inkscape:window-x="1912"
     inkscape:window-y="123"
     inkscape:window-maximized="1"
     inkscape:current-layer="svg9"
     showguides="true" />
  <g
     fill="#000000"
     id="g9"
     transform="matrix(2.9397947,0,0,2.9397947,-461.46534,-3145.9664)"
     style="fill:#4b5f62;fill-opacity:1">
    <path
       d="m 1049.6205,2496.9196 -4.5704,-9.1408 -1.1032,-54.3722 c -0.6305,-37.5089 -1.7337,-58.1545 -3.3097,-66.3497 -3.3096,-16.8633 -12.608,-43.4977 -22.064,-62.8826 -9.7712,-20.1728 -15.4448,-29.7864 -36.24814,-61.7793 -4.8856,-7.5648 -8.9832,-14.3417 -8.9832,-14.8145 0,-0.4728 -1.4184,-2.8368 -3.3096,-5.0432 -2.9944,-4.0976 -17.6513,-26.9496 -24.1129,-38.4545 -1.7336,-2.8368 -6.304,-10.5592 -10.0864,-17.0208 -10.5592,-17.8088 -34.0417,-65.4042 -38.7697,-78.8002 -2.364,-6.4616 -4.8856,-12.4504 -5.6736,-13.396 -0.6304,-0.788 -3.7824,-10.0864 -6.9344,-20.4881 -3.152,-10.4016 -6.4616,-20.0152 -7.092,-21.4336 -0.788,-1.2608 -3.6249,-12.608 -6.4617,-25.2161 -2.8368,-12.4504 -5.6736,-23.7976 -6.4616,-25.3736 -1.7336,-3.6248 -5.8312,-35.3025 -6.7768,-53.269 -0.3152,-8.1952 -0.3152,-13.2384 0,-11.032 0.4728,2.2064 1.4184,5.3584 2.2064,7.092 0.6304,1.7336 1.7336,6.304 2.364,10.244 1.4184,10.2441 8.668,42.5522 10.244,45.5466 0.788,1.4184 3.6249,10.7168 6.4617,20.6456 2.6792,9.9288 5.516,18.9121 6.1464,19.7001 0.788,0.9456 2.8368,6.1464 4.728,11.82 1.8912,5.6736 5.0432,13.8688 7.092,18.124 1.8912,4.4128 5.516,12.4505 8.0376,18.1241 2.364,5.6736 5.2008,11.3472 6.1464,12.608 0.9456,1.2608 4.4128,7.7224 7.5649,14.184 7.092,14.6569 15.76,30.2593 21.7488,38.9273 2.5216,3.6248 4.5704,6.9344 4.5704,7.4072 0,0.4728 4.728,7.7225 10.7168,16.0753 5.8313,8.1952 12.4505,17.9664 14.9721,21.5912 2.364,3.6248 5.6736,8.3528 7.4072,10.5593 1.7336,2.2064 10.0864,13.5536 18.7544,25.216 8.66814,11.6624 17.17854,23.0097 18.75454,25.2161 1.576,2.2064 7.4072,10.7168 12.9232,18.912 5.516,8.1952 11.3472,17.0209 13.0808,19.5425 4.5705,6.6192 23.1673,43.9705 23.1673,46.3345 0,1.1032 1.4184,4.8856 2.9944,8.668 19.7001,43.4977 15.2872,143.1011 -7.4072,167.0564 -2.2064,2.364 -4.5704,4.2552 -5.2008,4.2552 -0.6304,0 -3.152,-4.0976 -5.516,-8.9832 z"
       id="path1"
       style="fill:#4b5f62;fill-opacity:1;stroke-width:0.788002" />
    <path
       d="m 871.37436,2462.7203 c -24.2704,-10.5592 -83.6858,-63.8282 -108.429,-97.0818 -6.6192,-9.1409 -12.608,-17.6513 -13.0808,-18.9121 -0.4728,-1.2608 -1.7336,-3.4672 -2.8369,-4.728 -7.7224,-9.1408 -22.2216,-43.4977 -25.0584,-59.1001 -0.6304,-3.4672 -2.0488,-7.2496 -2.9944,-8.5104 -2.364,-2.9945 -2.364,-51.8506 0,-57.0514 0.9456,-2.0488 3.6248,-13.7112 5.9888,-25.8464 2.364,-12.1353 5.9888,-26.9497 8.0376,-33.0961 2.0488,-5.9888 5.516,-18.1241 7.88,-26.7921 2.2064,-8.668 4.728,-17.0208 5.6736,-18.5968 1.4185,-2.5216 9.6137,-34.0417 14.9721,-57.0514 5.6736,-25.216 10.0864,-69.9745 10.0864,-103.8586 0,-11.5048 0.6304,-21.4337 1.4184,-22.2217 0.788,-0.9456 1.7336,-3.3096 2.0488,-5.516 0.3152,-2.2064 1.2608,3.94 2.2064,13.3961 2.0488,25.0584 1.7336,90.1474 -0.6304,109.5322 -2.9944,23.1673 -7.88,52.1657 -9.6136,55.9481 -0.788,1.7337 -3.7824,14.1841 -6.6192,27.5801 -2.8368,13.396 -5.516,25.2161 -6.304,26.0041 -1.576,2.2064 -8.8257,40.1881 -10.2441,53.5841 -0.6304,6.1464 -1.7336,11.82 -2.5216,12.9232 -3.3096,4.2552 0.788,38.2969 7.4073,60.8338 2.8368,9.9288 15.2872,34.3569 18.912,37.3513 1.2608,1.1032 2.364,2.8368 2.364,3.7824 0,1.7336 12.7656,18.2816 23.7977,30.732 3.6248,3.9401 23.3248,24.2705 43.9705,45.0738 34.5144,34.8296 38.1393,38.9272 44.7585,51.6929 3.94,7.5648 7.2496,14.184 7.2496,14.4992 0,2.0488 -8.1952,0 -18.4393,-4.5704 z"
       id="path2"
       style="fill:#4b5f62;fill-opacity:1;stroke-width:0.788002" />
    <path
       d="m 1245.9905,2428.6786 c -29.6288,-5.516 -39.2425,-8.9832 -51.5353,-18.2816 -6.304,-4.728 -11.5048,-9.2984 -11.5048,-10.0864 0,-0.9457 3.7824,-3.4673 8.3528,-5.6737 7.88,-4.0976 9.456,-4.2552 47.5953,-5.516 21.7489,-0.6304 45.0737,-2.2064 52.0081,-3.4672 30.2593,-5.516 71.2354,-32.3081 95.8211,-62.7249 16.0752,-20.0153 32.308,-47.9105 38.1393,-66.0346 1.576,-4.728 3.3096,-9.456 4.0976,-10.244 2.0488,-2.6792 7.4072,-31.9929 8.3528,-46.8073 1.576,-20.8033 -2.8368,-56.1058 -8.5104,-68.241 -0.788,-1.7336 -3.6248,-8.5104 -6.4617,-14.972 -2.6792,-6.4616 -5.3584,-12.1352 -5.9888,-12.6081 -0.4728,-0.4728 -3.6248,-4.8856 -6.9344,-10.0864 -11.5048,-17.336 -54.0569,-58.3121 -75.1754,-72.1809 -2.2064,-1.4184 -10.244,-6.9345 -17.8088,-12.2929 -7.7224,-5.2008 -16.548,-10.8744 -19.7001,-12.608 -3.152,-1.7336 -12.9232,-7.7224 -21.5912,-13.396 -8.668,-5.516 -16.2328,-10.0865 -16.8632,-10.2441 -0.788,0 -6.3041,-3.152 -12.6081,-7.092 -6.304,-3.94 -11.9776,-7.092 -12.7656,-7.092 -0.6304,0 -5.0432,-2.5216 -9.7712,-5.3584 -4.728,-2.9944 -11.5049,-7.092 -15.2873,-8.9832 -3.7824,-1.8912 -7.092,-3.94 -7.5648,-4.5704 -0.4728,-0.6304 -3.3096,-2.364 -6.304,-3.94 -2.9944,-1.5761 -9.6136,-5.5161 -14.4992,-8.9833 -5.0432,-3.3096 -10.4017,-6.6192 -11.8201,-7.092 -1.576,-0.6304 -10.0864,-6.1464 -19.0696,-12.1352 -8.9832,-6.1464 -17.4936,-11.9776 -19.0696,-12.7656 -7.7225,-4.4129 -36.7209,-28.3681 -52.1658,-43.1825 -15.1296,-14.6569 -9.6136,-11.8201 11.6625,5.8312 3.4672,2.6792 7.092,5.0432 8.1952,5.0432 0.9456,0 2.2064,1.1032 2.8368,2.364 0.4728,1.2608 1.8912,2.364 3.3096,2.364 1.2608,0 2.364,0.788 2.364,1.576 0,0.9456 0.6304,1.576 1.576,1.576 0.788,0 6.6192,3.3096 12.9232,7.2496 25.5313,16.0753 51.693,29.9441 107.6411,56.5785 60.9913,29.1561 115.8363,57.3666 122.9283,63.3554 0.9456,0.788 4.728,3.152 8.668,5.3584 3.94,2.2064 12.608,8.1952 19.5424,13.2384 6.7769,5.2009 14.8145,11.1897 17.9665,13.2385 16.548,11.032 49.0137,48.5409 60.3609,69.8169 2.0488,3.7824 4.5704,7.8801 5.516,9.1409 2.0488,2.5216 5.3585,11.1896 9.6137,24.428 1.2608,4.4128 2.9944,8.668 3.6248,9.456 0.788,0.9456 2.5216,8.3529 4.0976,16.5481 4.8856,27.58 2.5216,87.153 -4.0976,98.973 -0.788,1.4184 -2.9944,8.1952 -4.728,14.972 -6.1465,22.5369 -24.5857,60.361 -39.4001,80.5338 -9.9289,13.5537 -33.2537,38.7697 -35.7753,38.7697 -0.788,0 -2.8368,1.4184 -4.4128,3.152 -6.9344,7.7225 -41.6065,26.7921 -48.6985,26.7921 -0.9456,0 -3.7825,1.1032 -6.3041,2.364 -13.7112,7.092 -62.7249,9.2984 -90.7778,3.94 z"
       id="path3"
       style="fill:#4b5f62;fill-opacity:1;stroke-width:0.788002" />
    <path
       d="m 163.43356,2417.3314 c -5.516,-2.6792 -6.4616,-3.7824 -6.4616,-8.3528 0,-6.6192 2.8368,-9.9289 23.3248,-26.7921 17.4936,-14.4992 35.3025,-34.0417 46.1769,-50.5897 3.4672,-5.0432 6.6192,-9.9288 7.4072,-10.8744 2.0488,-2.8368 17.6513,-30.2593 17.6513,-31.3625 0,-0.4728 2.5216,-5.9888 5.6736,-12.2928 8.8256,-17.9665 23.1672,-52.7962 36.0905,-87.153 2.8368,-7.7225 7.092,-18.2817 9.2984,-23.3249 2.2064,-5.0432 4.0976,-9.7712 4.0976,-10.7168 0,-0.788 2.364,-6.6192 5.3584,-12.9233 2.8368,-6.304 5.8312,-13.0808 6.4616,-15.2872 2.6792,-8.3528 17.9665,-40.1881 26.3193,-54.3721 18.124,-31.0473 25.0585,-40.6609 44.4433,-61.937 19.5424,-21.5912 49.9593,-47.1225 72.6538,-61.1489 4.2552,-2.6792 12.4504,-7.7224 18.124,-11.3472 5.6736,-3.6249 14.4993,-8.9833 19.7001,-11.8201 23.3248,-13.2384 37.0361,-20.9608 46.4921,-26.1616 14.0264,-7.8801 19.3848,-11.0321 28.8408,-17.3361 4.5705,-2.8368 11.3473,-7.092 15.1297,-9.2984 6.9344,-3.7824 23.9552,-15.6024 28.5256,-19.7 1.2608,-1.1032 5.2009,-4.0977 8.6681,-6.6193 11.1896,-8.0376 27.58,-24.9008 35.7752,-37.036 11.3473,-16.3905 14.1841,-24.4281 15.1297,-43.3401 1.1032,-23.7977 -2.0488,-33.8841 -24.5857,-79.9034 -10.4016,-21.1185 -20.3304,-42.2369 -21.9064,-46.9649 -1.576,-4.7281 -3.3096,-8.9833 -3.7824,-9.4561 -0.6304,-0.4728 -2.6792,-7.5648 -4.728,-15.76 -4.7281,-19.5425 -5.2009,-51.8505 -0.788,-68.5562 5.0432,-19.2272 22.3792,-52.6385 35.46,-67.9257 2.2064,-2.6792 6.6193,-7.88 9.6137,-11.6625 5.9888,-7.5648 33.7264,-35.1448 44.4433,-44.2857 3.7824,-3.152 9.6136,-8.1952 13.0808,-11.1896 3.4672,-2.9944 13.0808,-10.5592 21.276,-16.7056 8.1953,-6.1464 17.1785,-12.9233 19.8577,-15.1297 2.8368,-2.364 5.3584,-4.0976 5.9888,-4.0976 0.4728,0 9.6136,-5.8312 20.4881,-12.9232 10.7168,-7.2496 23.3248,-15.1296 27.8952,-17.8088 4.728,-2.5217 13.0809,-7.4073 18.7545,-10.5593 5.6736,-3.152 21.276,-11.1896 34.672,-17.8088 13.3961,-6.6192 27.5801,-13.5536 31.5201,-15.6025 3.94,-2.0488 8.8256,-4.2552 11.032,-4.8856 2.2065,-0.6304 7.5649,-2.8368 12.1353,-5.0432 22.6944,-10.5592 79.74584,-28.9984 113.15704,-36.7209 11.3473,-2.5216 23.3249,-5.3584 26.7921,-6.1464 24.7433,-6.1464 87.6258,-10.244 122.9283,-8.0376 23.0097,1.576 54.6873,6.4616 60.5185,9.456 1.4184,0.6304 8.1953,3.152 15.1297,5.516 30.5745,10.4017 59.5729,33.0961 70.4473,55.1602 8.5105,17.0208 12.2929,41.7641 9.4561,61.4641 -5.2008,36.0905 -23.1673,79.5882 -47.5953,114.7331 -4.7281,6.9344 -10.5593,15.1296 -12.7657,18.4392 -17.8088,26.6345 -77.2242,85.8922 -118.8307,118.9883 -3.3096,2.6792 -8.9832,7.2496 -12.608,10.244 -3.6248,2.9944 -15.4448,12.6081 -26.004,21.2761 -27.5801,22.3792 -30.2593,24.7432 -49.6442,44.2857 -27.58,27.8953 -31.52,34.6721 -30.4168,50.7473 0.9456,13.2384 4.728,20.9609 17.1784,34.1993 14.3416,15.1296 21.1185,19.8576 57.0513,38.9273 10.0865,5.516 18.4393,10.7168 18.4393,11.82 0,2.8368 -0.4728,2.6792 -19.3849,-3.3096 -20.488,-6.6192 -37.3513,-14.4992 -53.8993,-25.5313 -16.2328,-10.7168 -23.9552,-18.912 -32.4657,-34.5144 -6.9344,-12.4505 -6.9344,-12.7657 -6.9344,-28.3681 0,-14.8144 0.3152,-16.3904 5.3584,-26.6345 13.0809,-26.1616 39.5577,-52.9537 100.8643,-102.125 3.94,-3.152 9.456,-7.5648 11.9776,-9.7712 2.6792,-2.2064 11.5048,-9.6137 19.8576,-16.5481 52.9538,-43.9705 93.2995,-86.9954 117.8851,-126.2379 4.728,-7.4072 9.7712,-15.1296 11.1896,-17.336 1.5761,-2.2064 5.0433,-9.2984 7.8801,-15.76 2.8368,-6.4617 5.6736,-12.6081 6.4616,-13.3961 2.6792,-3.6248 9.1408,-29.4712 10.7168,-43.6553 1.8912,-17.1784 0.1576,-36.8785 -4.2552,-46.6497 -6.1464,-13.8688 -30.8897,-33.4113 -49.1713,-38.9273 -2.2064,-0.6304 -6.9344,-2.5216 -10.5592,-4.0976 -8.8257,-3.94 -33.5689,-8.9832 -50.4322,-10.4016 -7.2496,-0.4728 -13.5536,-1.576 -14.0264,-2.364 -1.1032,-1.7336 -52.0081,-1.576 -57.9969,0.1576 -2.6792,0.9456 -13.0809,2.364 -23.1673,3.152 -20.9608,2.0488 -56.5785,7.7224 -58.9425,9.6136 -0.788,0.6304 -4.0976,1.7336 -7.092,2.364 -12.4505,2.364 -43.3401,10.5592 -44.9162,11.6624 -0.788,0.788 -8.35284,3.3096 -16.54804,5.6737 -8.1952,2.364 -16.3904,5.2008 -18.124,6.304 -1.7336,0.9456 -7.092,3.152 -11.8201,4.728 -4.728,1.576 -12.608,4.728 -17.6512,7.092 -4.8856,2.5216 -10.5592,4.8856 -12.608,5.516 -9.2985,2.9944 -44.7585,20.9609 -79.273,40.1881 -26.1617,14.4992 -68.241,42.7097 -89.9898,60.2033 -30.7321,24.7433 -51.693,44.601 -70.605,67.453 -20.1728,24.2705 -26.9497,36.2481 -34.9873,61.4642 -3.152,9.7712 -3.7824,39.4 -1.1032,42.8673 0.9456,1.1032 2.2064,4.8856 2.8368,8.3528 1.576,8.668 7.5648,27.1072 11.5048,34.6721 1.7337,3.4672 8.0377,16.0752 14.0265,28.0528 5.8312,11.9776 12.1352,24.4281 13.7112,27.5801 3.94,7.5648 11.6624,27.4225 14.6568,37.3513 2.9945,9.9288 3.3097,43.0249 0.6305,52.7961 -1.1033,3.94 -3.1521,9.9288 -4.7281,13.396 -1.576,3.4672 -4.4128,10.2441 -6.4616,14.9721 -2.0488,4.728 -4.8856,10.0864 -6.304,11.82 -1.4184,1.7336 -4.4128,6.1464 -6.7768,9.6136 -3.7824,5.516 -21.4337,23.1673 -35.6177,35.6177 -5.516,4.728 -46.9649,32.7809 -48.5409,32.7809 -0.788,0 -4.0976,1.8912 -7.5648,4.2552 -5.8312,3.94 -16.0753,9.7712 -41.7641,23.7976 -5.6736,3.1521 -11.1896,6.6193 -12.2929,7.7225 -1.1032,1.1032 -2.8368,2.0488 -3.6248,2.0488 -0.788,0 -6.6192,3.152 -12.9232,6.9344 -6.1464,3.7824 -13.7112,8.0376 -16.548,9.456 -2.8368,1.4184 -11.1897,6.6192 -18.5969,11.6624 -7.4072,4.8856 -14.972,9.7713 -16.548,10.7169 -1.7336,0.9456 -10.4016,7.5648 -19.3849,14.6568 -27.2648,21.4336 -58.1545,55.4753 -71.0777,78.1698 -17.6513,31.3625 -30.2593,57.5241 -38.6121,81.1642 -2.0488,5.6736 -4.0976,11.032 -4.728,11.82 -0.6304,0.9456 -3.4672,8.668 -6.304,17.336 -2.8369,8.6681 -5.6737,16.5481 -6.3041,17.3361 -0.6304,0.9456 -3.4672,8.668 -6.304,17.336 -2.8368,8.668 -5.6736,16.5481 -6.304,17.3361 -0.6304,0.9456 -3.7824,8.9832 -7.092,18.124 -3.3096,9.1408 -6.4616,17.336 -7.092,18.124 -0.6304,0.9457 -3.152,6.6193 -5.516,12.6081 -7.2497,17.9664 -30.7321,64.6161 -33.8841,66.9801 -0.6304,0.4728 -3.152,3.94 -5.516,7.8801 -15.4449,24.9008 -43.1825,49.8017 -61.6218,55.6329 -13.396,4.2552 -17.0208,4.2552 -24.1128,0.788 z"
       id="path4"
       style="fill:#4b5f62;fill-opacity:1;stroke-width:0.788002" />
    <path
       d="m 408.81726,2378.5617 c -1.576,-0.3152 -2.8368,-1.8912 -2.8368,-3.6248 0,-7.2496 5.9889,-15.9176 22.5369,-32.9385 38.2969,-39.2425 57.8393,-64.7737 82.5826,-107.1682 13.8688,-24.1129 49.9593,-99.2883 58.7849,-122.9283 1.2608,-2.9944 4.8856,-11.3473 8.1952,-18.5969 3.3097,-7.092 5.9889,-13.396 5.9889,-13.8688 0,-3.3096 27.58,-57.9969 37.3513,-73.9146 3.6248,-5.9888 8.668,-14.184 11.032,-18.124 11.1896,-18.4393 23.9552,-34.3569 46.3345,-57.997 14.4992,-15.2872 20.6456,-20.488 37.3513,-31.52 17.6512,-11.8201 15.76,-8.5105 -11.0321,19.0696 -12.4504,12.608 -25.8464,27.1073 -29.7864,32.1505 -9.6136,12.1352 -21.9065,29.7865 -21.9065,31.2049 0,0.6304 -2.0488,3.94 -4.5704,7.5648 -9.9288,14.4992 -24.5856,42.8673 -34.0417,65.7193 -2.364,5.6736 -5.8312,13.8689 -7.88,18.1241 -1.8912,4.4128 -4.4128,10.7168 -5.516,14.184 -1.1032,3.4672 -2.8368,7.7224 -3.94,9.456 -1.1032,1.7336 -4.2552,9.9289 -7.092,18.1241 -2.8368,8.1952 -5.6736,15.76 -6.304,16.548 -0.6304,0.9456 -3.7824,8.9832 -7.0921,18.1241 -3.3096,9.1408 -6.4616,17.336 -7.092,18.124 -0.788,0.9456 -2.8368,5.8312 -4.728,11.032 -1.8912,5.2008 -5.8312,14.4993 -8.668,20.4881 -2.8368,6.1464 -9.2984,19.8576 -14.184,30.732 -5.0432,10.8745 -10.4017,21.4337 -11.8201,23.6401 -1.576,2.2064 -4.728,7.88 -7.092,12.608 -2.364,4.728 -4.8856,8.9833 -5.516,9.4561 -0.6304,0.4728 -2.0488,2.5216 -3.152,4.728 -2.9944,5.8312 -19.8576,31.2048 -24.9009,37.3513 -35.7752,44.2857 -63.6705,65.8769 -81.0066,62.2521 z"
       id="path5"
       style="fill:#4b5f62;fill-opacity:1;stroke-width:0.788002" />
    <path
       d="m 1160.8863,2313.4727 c -6.9344,-2.8368 -14.184,-9.2984 -26.004,-23.64 -15.6025,-18.7545 -27.7377,-37.8241 -37.9817,-59.7306 -2.2064,-4.728 -5.6736,-11.82 -7.5648,-15.76 -1.8912,-3.94 -5.8313,-14.4992 -8.6681,-23.64 -2.9944,-9.1409 -5.8312,-17.1785 -6.4616,-18.1241 -0.6304,-0.788 -3.4672,-10.7168 -6.1464,-22.064 -2.8368,-11.1897 -5.6736,-21.9065 -6.4616,-23.6401 -0.9456,-1.7336 -3.7824,-13.396 -6.304,-26.0041 -2.6792,-12.608 -5.516,-24.2704 -6.304,-26.004 -0.788,-1.7336 -3.7824,-13.3961 -6.4617,-26.0041 -2.6792,-12.608 -5.8312,-25.6888 -6.9344,-29.1561 -1.2608,-3.4672 -4.4128,-15.1296 -7.2496,-26.004 -2.6792,-10.8744 -5.6736,-20.8033 -6.304,-22.0641 -0.788,-1.2608 -3.6248,-9.7712 -6.304,-18.912 -2.6792,-9.1408 -5.516,-17.1784 -6.1464,-18.1241 -0.6304,-0.788 -2.8368,-6.4616 -4.728,-12.608 -1.8912,-5.9888 -5.20094,-14.4992 -7.09214,-18.912 -9.456,-20.4881 -11.032,-28.2105 -3.152,-13.8689 2.364,4.0977 5.67364,9.4561 7.24974,11.8201 3.7824,5.516 17.8088,35.1449 22.852,48.3833 2.0488,5.6736 4.4128,10.8744 5.2008,11.82 0.6304,0.9456 3.6248,8.5104 6.4616,16.7057 2.8368,8.1952 5.6736,15.76 6.304,16.548 0.6304,0.9456 3.7825,9.7712 7.0921,19.7 3.152,9.9289 6.7768,20.3305 7.88,22.8521 1.1032,2.6792 3.6248,10.4016 5.516,17.336 1.8912,6.9344 4.4128,14.8145 5.516,17.3361 1.2608,2.6792 4.4128,12.608 7.2496,22.064 2.8368,9.6136 5.6736,18.4393 6.304,19.7001 0.788,1.2608 3.9401,10.5592 7.0921,20.488 2.9944,9.9288 6.1464,18.9121 6.9344,19.7001 0.6304,0.9456 2.6792,6.1464 4.5704,11.82 6.4616,18.7544 25.8464,58.3121 36.7209,74.3874 3.3096,4.8856 5.9888,9.456 5.9888,9.9288 0,0.4728 5.3584,8.8256 11.82,18.4392 12.4504,18.4393 14.4992,23.3249 15.2873,37.5089 0.4728,7.7224 0.1576,8.668 -2.6793,8.9832 -1.7336,0.1576 -4.8856,-0.3152 -7.092,-1.2608 z"
       id="path6"
       style="fill:#4b5f62;fill-opacity:1;stroke-width:0.788002" />
    <path
       d="m 1525.416,2079.909 c -6.4616,-9.9288 -6.7768,-12.608 -7.4072,-54.6873 -0.6304,-48.541 -4.4128,-61.937 -24.1129,-87.7834 -14.8144,-19.7001 -46.3345,-47.2802 -66.0345,-57.997 -4.2553,-2.364 -8.8257,-5.2008 -10.0865,-6.304 -1.2608,-1.1032 -6.304,-3.94 -11.032,-6.4616 -4.728,-2.364 -8.9832,-4.8856 -9.456,-5.3584 -1.4184,-1.576 -27.7377,-14.0265 -40.3457,-19.0697 -6.7768,-2.6792 -15.2872,-6.1464 -18.9121,-7.7224 -3.4672,-1.576 -11.9776,-4.8856 -18.912,-7.092 -6.7768,-2.364 -14.6568,-5.2008 -17.336,-6.4616 -2.8368,-1.2608 -11.9777,-3.94 -20.4881,-6.1464 -8.668,-2.2064 -16.7056,-4.5704 -17.9664,-5.3584 -4.8856,-2.6793 -42.8673,-11.3473 -88.8866,-20.0153 -15.4449,-2.9944 -30.5745,-6.7768 -33.8841,-8.5104 l -5.6736,-3.152 6.304,0.788 c 3.4672,0.3152 14.184,1.1032 23.64,1.576 22.5369,1.1032 58.9426,5.2008 63.0402,7.092 1.7336,0.6304 8.8256,2.2064 15.76,3.152 18.1241,2.5216 51.5353,9.2984 55.1602,11.032 1.7336,0.788 11.9776,3.6248 22.852,6.304 10.7168,2.6793 20.3305,5.5161 21.2761,6.1465 0.788,0.6304 7.5648,3.152 14.972,5.6736 7.4072,2.364 16.2328,5.516 19.8576,7.2496 3.4672,1.576 10.2441,4.4128 14.9721,6.1464 24.428,9.6136 68.8713,35.6177 88.8866,52.0081 15.1296,12.4505 35.1449,33.4113 43.1825,45.3889 3.6248,5.3585 8.8256,14.9721 11.3472,21.2761 2.5216,6.304 5.2008,12.4504 5.9888,13.8688 7.4072,13.3961 7.4072,78.0122 0.1576,90.9354 -0.9456,1.576 -2.9944,6.6193 -4.728,11.6625 -3.4672,9.2984 -9.7712,15.6024 -12.1352,11.82 z"
       id="path7"
       style="fill:#4b5f62;fill-opacity:1;stroke-width:0.788002" />
    <path
       d="m 708.57326,1690.0057 c -15.4449,-1.8912 -26.0041,-32.9385 -17.4937,-51.8506 6.6192,-14.6568 24.5857,-26.792 34.5145,-23.3248 3.94,1.2608 9.2984,8.9832 14.4992,20.8032 2.2064,5.0433 2.0488,5.6737 -1.7336,14.4993 -2.5216,5.9888 -4.2552,7.88 -7.7224,8.668 -2.5216,0.4728 -6.6192,2.9944 -9.2984,5.516 -4.8856,4.728 -10.5592,12.4504 -9.456,13.0808 0.3152,0.1576 2.0488,1.1032 3.7824,2.0488 2.0488,1.1032 3.152,3.4673 3.152,6.3041 0,4.8856 -1.1032,5.3584 -10.244,4.2552 z"
       id="path8"
       style="fill:#4b5f62;fill-opacity:1;stroke-width:0.788002" />
    <path
       d="m 899.11206,1675.8216 c -0.1576,-0.788 -0.1576,-2.6792 0,-4.5704 0.4728,-5.9888 -2.9944,-17.6512 -8.668,-29.7864 -7.7224,-16.3905 -7.092,-22.3793 3.7824,-32.3081 8.5104,-8.0376 16.3904,-11.032 28.0529,-11.032 17.8088,0.1576 27.1072,9.6136 25.3736,26.3192 -1.576,15.2873 -13.5536,35.1449 -20.9608,35.1449 -2.8368,0 -5.9888,2.0488 -9.7712,5.9888 -8.5105,8.9832 -17.1785,14.0264 -17.8089,10.244 z"
       id="path9"
       style="fill:#4b5f62;fill-opacity:1;stroke-width:0.788002" />
  </g>
  <text
     xml:space="preserve"
     id="text1"
     style="font-style:normal;font-weight:normal;font-size:40px;line-height:1.25;font-family:sans-serif;white-space:pre;shape-inside:url(#rect1);display:inline;fill:#000000;fill-opacity:1;stroke:none"
     transform="matrix(1.3515497,0,0,1.3515497,-197.28236,-1557.4321)"><tspan
       x="594.23828"
       y="2864.5315"
       id="tspan1">__</tspan></text>
  <path
     id="text2"
     style="font-style:normal;font-weight:normal;font-size:40px;line-height:1.25;font-family:sans-serif;white-space:pre;shape-inside:url(#rect2);display:inline;fill:#4b5f62;fill-opacity:1;stroke:none;stroke-width:3.3208"
     d="m 14701.923,1649.9523 v 331.4318 c 0,10.5939 1.26,31.2726 3.782,62.0447 2.522,30.2679 4.545,50.4506 6.058,60.5397 h -9.84 c -60.03,-81.7227 -145.791,-122.5844 -257.278,-122.5844 -108.459,0 -192.7,38.0828 -252.73,114.2564 -59.528,76.174 -89.293,182.1114 -89.293,317.8118 0,136.7093 29.765,242.3985 89.293,317.0589 59.526,74.6607 143.264,111.9864 251.219,111.9864 114.513,0 200.777,-42.1203 258.789,-126.3659 h 6.053 l 20.43,111.2341 h 109.722 V 1649.9523 Z m -2724.856,155.8766 -54.482,177.0665 -118.803,54.4819 v 65.0736 h 117.292 v 483.5276 c 0,171.0127 81.214,256.5191 243.651,256.5191 27.241,0 53.98,-2.7724 80.212,-8.3215 26.736,-5.0446 46.41,-10.3413 59.022,-15.8904 v -104.4241 c -12.107,4.5404 -30.014,8.5784 -53.723,12.1093 -23.71,3.5315 -44.395,5.2927 -62.051,5.2927 -40.862,0 -72.897,-12.8638 -96.103,-38.5913 -22.7,-25.7277 -34.051,-62.5514 -34.051,-110.4753 v -479.7461 h 239.877 v -105.9352 h -239.877 v -190.6868 z m -6618.0479,175.5552 c -55.4908,0 -104.4281,10.0852 -146.8029,30.2637 -42.375,20.1781 -79.7007,52.9706 -111.9864,98.3722 h -6.0578 l -18.1607,-113.5043 H 4964.025 v 1203.1435 h 136.2048 v -341.2711 c 0,-30.7722 -2.0222,-65.8281 -6.0578,-105.1759 l -3.0224,-31.0288 h 9.0802 c 60.031,80.2092 145.7855,120.3142 257.2717,120.3142 108.4593,0 192.7068,-38.0826 252.738,-114.2565 60.031,-76.1736 90.0443,-182.111 90.0443,-317.8115 0,-136.2048 -30.0133,-241.6396 -90.0443,-316.3 -59.5267,-75.1652 -143.2653,-112.7455 -251.2204,-112.7455 z m 1348.429,0 c -50.951,0 -98.1204,14.1228 -141.5043,42.3726 -43.3837,28.2501 -80.9639,69.8682 -112.7451,124.8547 h -6.0582 l -15.1315,-152.0957 h -111.9928 v 830.8501 h 136.2049 V 2383.941 c 0,-51.9598 10.5935,-99.1224 31.7811,-141.4974 21.1874,-42.8795 50.4507,-76.4282 87.7807,-100.6426 37.835,-24.2139 78.6964,-36.3212 122.5846,-36.3212 29.2589,0 59.2721,3.529 90.0445,10.5917 l 16.6494,-125.6068 c -28.2498,-6.0539 -60.7875,-9.0806 -97.6133,-9.0806 z m 995.0543,0 c -122.0796,0 -216.921,37.8348 -284.5189,113.5042 -67.598,75.1649 -101.3949,180.3453 -101.3949,315.5413 0,86.7678 15.6365,162.9394 46.9131,228.5195 31.2767,65.58 75.9216,116.0241 133.9347,151.3367 58.0131,34.8078 124.6023,52.2118 199.7671,52.2118 121.0712,0 215.9125,-38.0826 284.5194,-114.2565 68.6068,-76.1736 102.906,-182.111 102.906,-317.8115 0,-132.1691 -34.5536,-236.593 -103.6648,-313.2711 -68.6074,-77.1828 -161.4261,-115.7744 -278.4617,-115.7744 z m 1383.2326,0 c -53.473,0 -101.9016,11.3506 -145.2853,34.0512 -42.8792,22.7008 -76.174,54.2275 -99.8835,94.5847 h -7.5628 l -20.4305,-113.5043 H 8702.85 v 830.8501 h 136.2049 V 2396.809 c 0,-106.946 17.6584,-183.8809 52.9708,-230.796 35.8169,-46.9149 92.06,-70.3725 168.7386,-70.3725 58.5174,0 101.4009,16.3996 128.6422,49.1895 27.7453,32.7904 41.6138,81.9753 41.6138,147.5553 v 534.9805 h 135.4526 v -458.5563 c 0,-92.3169 18.1605,-160.9217 54.4818,-205.8187 36.3213,-44.8973 93.0735,-67.3503 170.2561,-67.3503 112.4953,0 168.7385,65.5846 168.7385,196.7448 v 534.9805 h 134.6938 v -541.0383 c 0,-106.4414 -23.4576,-183.8722 -70.3725,-232.3006 -46.4106,-48.4283 -116.5288,-72.6428 -210.3588,-72.6428 -58.5176,0 -110.984,12.1071 -157.3946,36.3216 -45.9062,24.2138 -82.2275,58.513 -108.9639,102.9059 h -7.5693 c -39.3482,-92.8211 -124.0976,-139.2275 -254.249,-139.2275 z m 1863.744,0 c -55.491,0 -104.428,10.0852 -146.803,30.2637 -42.375,20.1781 -79.701,52.9706 -111.987,98.3722 h -6.057 l -18.161,-113.5043 h -111.986 v 1203.1435 h 136.204 v -341.2711 c 0,-30.7722 -2.022,-65.8281 -6.057,-105.1759 l -3.023,-31.0288 h 9.08 c 60.031,80.2092 145.786,120.3142 257.272,120.3142 108.46,0 192.707,-38.0826 252.738,-114.2565 60.031,-76.1736 90.045,-182.111 90.044,-317.8115 0,-136.2048 -30.013,-241.6396 -90.044,-316.3 -59.526,-75.1652 -143.265,-112.7455 -251.22,-112.7455 z m 2243.6,0 c -112.495,0 -201.785,39.5961 -267.87,118.7965 -66.085,78.6963 -99.131,184.6336 -99.131,317.8116 0,132.1694 35.316,236.0909 105.941,311.7602 71.129,75.1647 168.991,112.7452 293.593,112.7452 54.987,0 102.659,-4.0312 143.015,-12.1028 40.357,-8.0713 83.489,-21.9462 129.395,-41.6203 V 2669.219 c -53.473,22.7007 -100.134,38.0827 -139.986,46.1539 -39.853,7.5671 -81.973,11.3506 -126.366,11.3506 -83.236,0 -147.555,-24.4621 -192.957,-73.3951 -45.402,-48.9327 -69.368,-120.5708 -71.89,-214.9055 h 569.037 v -82.4749 c 0,-115.018 -31.024,-206.0754 -93.072,-273.169 -62.05,-67.5979 -145.285,-101.3949 -249.709,-101.3949 z m -1.518,111.2342 c 63.562,0 112.748,20.1762 147.555,60.5332 34.808,40.3571 52.721,99.3792 53.729,177.0664 h -422.993 c 7.062,-74.6603 29.509,-132.9259 67.344,-174.7961 37.834,-41.8704 89.289,-62.8035 154.365,-62.8035 z m 1272.004,1.5113 c 82.731,0 143.267,24.7165 181.607,74.1537 38.843,48.933 58.264,131.1648 58.264,246.6866 v 24.9708 c 0,102.9104 -19.167,177.0664 -57.506,222.4681 -37.834,44.8972 -98.121,67.3436 -180.854,67.3436 -71.633,0 -126.618,-26.4844 -164.956,-79.4528 -37.836,-52.9687 -56.753,-130.9083 -56.753,-233.8184 0,-103.415 19.172,-182.8679 57.511,-238.3587 38.339,-55.9956 92.566,-83.9929 162.687,-83.9929 z m -9128.7643,1.5109 c 71.6336,0 126.8723,26.9931 165.7158,80.9707 39.3482,53.4732 59.0222,130.9038 59.0222,232.3009 0,100.8924 -19.674,179.5885 -59.0222,236.0883 -38.8435,56.4999 -93.0711,84.752 -162.687,84.752 -83.7408,0 -144.2763,-24.9709 -181.6066,-74.9127 -37.3301,-50.4465 -55.9931,-131.9148 -55.9931,-244.4101 v -26.4886 c 1.0088,-99.3791 19.6718,-172.2694 55.9931,-218.68 36.8258,-46.4106 96.3503,-69.6205 178.5778,-69.6205 z m 2363.9141,0 c 80.2097,0 140.9994,26.4845 182.3653,79.453 41.8705,52.464 62.8034,130.9124 62.8034,235.3361 0,104.4239 -20.6787,183.8768 -62.0442,238.3587 -41.3659,53.9776 -101.6538,80.9641 -180.8544,80.9641 -80.2095,0 -140.9931,-26.9865 -182.3588,-80.9641 -40.8615,-54.4819 -61.2923,-133.9348 -61.2923,-238.3587 0,-209.8563 80.4574,-314.7891 241.381,-314.7891 z m 3226.5452,0 c 71.634,0 126.873,26.9931 165.716,80.9707 39.348,53.4732 59.022,130.9038 59.022,232.3009 0,100.8924 -19.674,179.5885 -59.022,236.0883 -38.843,56.4999 -93.071,84.752 -162.687,84.752 -83.741,0 -144.276,-24.9709 -181.606,-74.9127 -37.331,-50.4465 -55.994,-131.9148 -55.994,-244.4101 v -26.4886 c 1.01,-99.3791 19.672,-172.2694 55.994,-218.68 36.825,-46.4106 96.35,-69.6205 178.577,-69.6205 z" />
  <text
     xml:space="preserve"
     style="font-style:normal;font-weight:normal;font-size:132.832px;line-height:1.25;font-family:sans-serif;fill:#4b5f62;fill-opacity:1;stroke:none;stroke-width:3.3208"
     x="10021.537"
     y="101.76436"
     id="text3"><tspan
       sodipodi:role="line"
       id="tspan3"
       x="10021.537"
       y="101.76436"
       style="stroke-width:3.3208">`</tspan></text>
</svg>
